<svg width="32" height="33" viewBox="0 0 32 33" fill="none" xmlns="http://www.w3.org/2000/svg">
<g clip-path="url(#clip0_1370_136)">
<g clip-path="url(#clip1_1370_136)">
<path fill-rule="evenodd" clip-rule="evenodd" d="M20.2453 20.5H12.3307C9.94133 20.5 8 22.481 8 24.8429V31.1667H24.6507V24.8429C24.576 22.4048 22.6347 20.5 20.2453 20.5ZM21.3654 27.4332H16.8854V24.3094H21.3654V27.4332Z" fill="#CEE8FA"/>
<path fill-rule="evenodd" clip-rule="evenodd" d="M23.5893 7.27143H10C10 7.27143 10 4.60476 10 3.38571C10 0.871428 23.5893 0.871428 23.5893 3.38571C23.5893 4.60476 23.5893 7.27143 23.5893 7.27143Z" fill="#CEE8FA"/>
<path d="M12.31 20.8198H20.2C21.4094 20.8198 22.5692 21.3003 23.4244 22.1554C24.2796 23.0106 24.76 24.1704 24.76 25.3798V31.3798C24.76 31.4965 24.7136 31.6084 24.6311 31.691C24.5486 31.7735 24.4367 31.8198 24.32 31.8198H8.19C8.0733 31.8198 7.96139 31.7735 7.87887 31.691C7.79636 31.6084 7.75 31.4965 7.75 31.3798V25.3798C7.75 24.1704 8.23043 23.0106 9.08559 22.1554C9.94076 21.3003 11.1006 20.8198 12.31 20.8198V20.8198Z" stroke="#325287" stroke-width="1.5" stroke-miterlimit="10"/>
<path d="M21.63 24.8198H16.87C16.8037 24.8198 16.75 24.8736 16.75 24.9398V27.6998C16.75 27.7661 16.8037 27.8198 16.87 27.8198H21.63C21.6963 27.8198 21.75 27.7661 21.75 27.6998V24.9398C21.75 24.8736 21.6963 24.8198 21.63 24.8198Z" stroke="#325287" stroke-width="1.5" stroke-miterlimit="10"/>
<path d="M23.34 6.93017V3.47017C23.337 3.21132 23.2549 2.95958 23.1047 2.74868C22.9546 2.53779 22.7436 2.37781 22.5 2.29017C20.5137 1.60061 18.4225 1.26222 16.32 1.29017C14.2375 1.26695 12.1668 1.60531 10.2 2.29017C9.95031 2.37691 9.73358 2.53883 9.57959 2.75369C9.4256 2.96856 9.34192 3.22583 9.34003 3.49017V10.8202C9.34243 12.1571 9.72761 13.4653 10.45 14.5902V14.5902C11.1089 15.6232 12.0273 16.4652 13.1136 17.032C14.1998 17.5988 15.4158 17.8706 16.64 17.8202C18.4747 17.6999 20.193 16.8793 21.4399 15.5282C22.6868 14.1771 23.367 12.3986 23.34 10.5602" stroke="#325287" stroke-width="1.5" stroke-miterlimit="10" stroke-linecap="round"/>
<path d="M10.46 14.5898H10.45" stroke="#325287" stroke-width="1.5" stroke-miterlimit="10"/>
<path d="M23.34 6.93018H9.34003" stroke="#325287" stroke-width="1.5" stroke-miterlimit="10"/>
</g>
</g>
<defs>
<clipPath id="clip0_1370_136">
<rect width="32" height="32" fill="white" transform="translate(0 0.5)"/>
</clipPath>
<clipPath id="clip1_1370_136">
<rect width="18.5" height="32.07" fill="white" transform="translate(7 0.5)"/>
</clipPath>
</defs>
</svg>
