<svg width="32" height="33" viewBox="0 0 32 33" fill="none" xmlns="http://www.w3.org/2000/svg">
<g clip-path="url(#clip0_1370_1008)">
<path d="M8.41992 9.25V6.49C8.41992 6.16113 8.55056 5.84573 8.78311 5.61319C9.01565 5.38064 9.33105 5.25 9.65992 5.25H11.3599C11.688 5.25261 12.0019 5.3841 12.2338 5.61608C12.4658 5.84806 12.5973 6.16194 12.5999 6.49V9.25" fill="#CEE8FA"/>
<path d="M8.41992 9.25V6.49C8.41992 6.16113 8.55056 5.84573 8.78311 5.61319C9.01565 5.38064 9.33105 5.25 9.65992 5.25H11.3599C11.688 5.25261 12.0019 5.3841 12.2338 5.61608C12.4658 5.84806 12.5973 6.16194 12.5999 6.49V9.25" stroke="#325287" stroke-width="1.5" stroke-miterlimit="10" stroke-linecap="round"/>
<path d="M31.15 21.19V27.31C31.15 27.3678 31.1386 27.425 31.1165 27.4784C31.0944 27.5318 31.062 27.5803 31.0211 27.6211C30.9803 27.662 30.9318 27.6944 30.8784 27.7165C30.825 27.7386 30.7678 27.75 30.71 27.75H1.19C1.13222 27.75 1.075 27.7386 1.02162 27.7165C0.968236 27.6944 0.919731 27.662 0.878873 27.6211C0.838015 27.5803 0.805605 27.5318 0.783493 27.4784C0.761381 27.425 0.75 27.3678 0.75 27.31V10.13C0.75 9.89662 0.842714 9.67279 1.00775 9.50775C1.17278 9.34272 1.39661 9.25001 1.63 9.25001H23.22C23.3282 9.24944 23.4347 9.27674 23.5293 9.32928C23.6239 9.38183 23.7033 9.45784 23.76 9.55001L25.52 12.25L30.08 19.25L30.97 20.67C31.0774 20.8231 31.1398 21.0033 31.15 21.19Z" stroke="#325287" stroke-width="1.5" stroke-miterlimit="10"/>
<path d="M30.08 19.25H16.22C15.8885 19.25 15.5705 19.1183 15.3361 18.8839C15.1017 18.6495 14.97 18.3315 14.97 18V13.5C14.97 13.1685 15.1017 12.8505 15.3361 12.6161C15.5705 12.3817 15.8885 12.25 16.22 12.25H25.52L30.08 19.25Z" fill="#CEE8FA" stroke="#325287" stroke-width="1.5" stroke-miterlimit="10"/>
<path d="M7.61011 31.25C9.26696 31.25 10.6101 29.9069 10.6101 28.25C10.6101 26.5931 9.26696 25.25 7.61011 25.25C5.95325 25.25 4.61011 26.5931 4.61011 28.25C4.61011 29.9069 5.95325 31.25 7.61011 31.25Z" fill="#CEE8FA" stroke="#325287" stroke-width="1.5" stroke-miterlimit="10"/>
<path d="M24.6101 31.25C26.267 31.25 27.6101 29.9069 27.6101 28.25C27.6101 26.5931 26.267 25.25 24.6101 25.25C22.9533 25.25 21.6101 26.5931 21.6101 28.25C21.6101 29.9069 22.9533 31.25 24.6101 31.25Z" fill="#CEE8FA" stroke="#325287" stroke-width="1.5" stroke-miterlimit="10"/>
<path d="M7.88989 12.1201V19.2101" stroke="#325287" stroke-width="1.5" stroke-miterlimit="10" stroke-linecap="round"/>
<path d="M11.4301 15.6699H4.34009" stroke="#325287" stroke-width="1.5" stroke-miterlimit="10" stroke-linecap="round"/>
<path d="M14.6597 6.58579C14.4967 6.4601 14.2827 6.37466 14.2198 6.22541C14.1491 6.06144 14.1403 5.78161 14.2365 5.65004C14.7275 4.97842 15.2547 4.33136 15.7879 3.69214C15.8331 3.6371 15.8892 3.59188 15.9525 3.55929C16.0159 3.5267 16.0853 3.50743 16.1564 3.50264C16.2275 3.49786 16.2988 3.50768 16.366 3.53148C16.4331 3.55529 16.4947 3.59259 16.5469 3.64108C16.6035 3.68413 16.651 3.73797 16.6866 3.79951C16.7222 3.86105 16.7453 3.92904 16.7544 3.99956C16.7635 4.07007 16.7586 4.14171 16.7398 4.2103C16.721 4.27888 16.6889 4.34306 16.6451 4.3991C16.1463 5.0501 15.6308 5.6893 15.1065 6.32066C15.0112 6.43161 14.8433 6.47876 14.6597 6.58579Z" fill="#325287"/>
<path d="M7.00272 6.03858C6.90453 6.15739 6.80634 6.3793 6.64728 6.43134C6.47348 6.4932 6.15633 6.47946 6.05814 6.36458C5.48569 5.71555 4.94565 5.03705 4.42426 4.34678C4.23967 4.10327 4.32018 3.82441 4.56271 3.63195C4.80524 3.4395 5.0733 3.43557 5.25986 3.65355C5.82641 4.32321 6.36351 5.01838 6.90552 5.70865C6.95167 5.77346 6.95363 5.87166 7.00272 6.03858Z" fill="#325287"/>
<path d="M11.1036 1.99412C11.1036 2.31128 11.1164 2.62941 11.1036 2.94558C11.087 3.28531 10.8542 3.50525 10.5489 3.50427C10.4751 3.50547 10.4018 3.49181 10.3334 3.46409C10.265 3.43638 10.2029 3.39519 10.1508 3.34296C10.0987 3.29074 10.0576 3.22854 10.03 3.1601C10.0024 3.09166 9.98885 3.01837 9.99018 2.94459C9.97545 2.31029 9.97447 1.67599 9.99018 1.04169C9.99002 0.967695 10.0051 0.894453 10.0344 0.826517C10.0637 0.75858 10.1067 0.697389 10.1606 0.64675C10.2146 0.596111 10.2784 0.557102 10.348 0.53214C10.4177 0.507177 10.4917 0.496804 10.5656 0.501647C10.8876 0.52914 11.0742 0.712755 11.1036 1.04169C11.1036 1.06624 11.1036 1.09078 11.1036 1.11533V1.99904V1.99412Z" fill="#325287"/>
</g>
<defs>
<clipPath id="clip0_1370_1008">
<rect width="32" height="32" fill="white" transform="translate(0 0.5)"/>
</clipPath>
</defs>
</svg>
