<svg width="32" height="32" viewBox="0 0 32 32" fill="none" xmlns="http://www.w3.org/2000/svg">
<rect width="32" height="32" fill="white"/>
<g clip-path="url(#clip0_1108_12079)">
<path d="M2.89155 11.9897H1.34938C0.923527 11.9897 0.5783 12.335 0.5783 12.7608C0.5783 13.1867 0.923527 13.5319 1.34938 13.5319H2.89155C3.31741 13.5319 3.66264 13.1867 3.66264 12.7608C3.66264 12.335 3.31741 11.9897 2.89155 11.9897Z" stroke="#325287" stroke-width="1.15663"/>
<path d="M29.1083 13.5312H30.6504C31.0763 13.5312 31.4215 13.186 31.4215 12.7602C31.4215 12.3343 31.0763 11.9891 30.6504 11.9891H29.1083C28.6824 11.9891 28.3372 12.3343 28.3372 12.7602C28.3372 13.186 28.6824 13.5312 29.1083 13.5312Z" stroke="#325287" stroke-width="1.15663"/>
<path d="M8.17327 10.5791C10.1168 10.5842 12.0224 11.1172 13.6865 12.1213V18.1974C13.6865 18.1974 12.6533 21.5439 8.17327 21.5439C6.94374 21.5917 5.72801 21.2707 4.68235 20.6221C3.63669 19.9736 2.80888 19.0271 2.30532 17.9044V11.8822C4.17722 11.131 6.15934 10.6908 8.17327 10.5791Z" fill="#CEE8FA"/>
<path d="M23.233 10.5791C21.2919 10.5848 19.389 11.1178 17.7274 12.1213V18.1974C17.7274 18.1974 18.7607 21.5439 23.2407 21.5439C24.4702 21.5917 25.6859 21.2707 26.7316 20.6221C27.7773 19.9736 28.6051 19.0271 29.1086 17.9044V11.8822C27.2347 11.129 25.2497 10.6887 23.233 10.5791Z" fill="#CEE8FA"/>
<path d="M13.9797 12.1213V18.1974C13.9797 18.1974 12.9156 21.5439 8.46649 21.5439C7.23696 21.5917 6.02123 21.2707 4.97557 20.6221C3.92991 19.9736 3.1021 19.0271 2.59854 17.9044V11.8822C4.46801 11.1318 6.44746 10.6916 8.45878 10.5791C10.2666 10.5822 12.0442 11.0438 13.625 11.9208L13.9797 12.1213Z" stroke="#325287" stroke-width="1.15663"/>
<path d="M18.0204 12.1213V18.1974C18.0204 18.1974 19.0536 21.5439 23.5336 21.5439C24.7632 21.5917 25.9789 21.2707 27.0246 20.6221C28.0702 19.9736 28.898 19.0271 29.4016 17.9044V11.8822C27.5321 11.1318 25.5527 10.6916 23.5414 10.5791C21.7335 10.5822 19.956 11.0438 18.3751 11.9208L18.0204 12.1213Z" stroke="#325287" stroke-width="1.15663"/>
<path d="M5.97589 18.1589L10.7412 13.3936" stroke="#325287" stroke-width="1.15663" stroke-linecap="round"/>
<path d="M21.3977 18.1589L26.163 13.3936" stroke="#325287" stroke-width="1.15663" stroke-linecap="round"/>
<path d="M13.9797 13.6626C14.1632 14.0424 14.4501 14.3627 14.8075 14.5869C15.1648 14.8111 15.5781 14.93 15.9999 14.93C16.4217 14.93 16.835 14.8111 17.1923 14.5869C17.5497 14.3627 17.8366 14.0424 18.0201 13.6626" stroke="#325287" stroke-width="1.15663"/>
<path d="M13.9797 12.1211L15.0592 12.4604C15.6703 12.6611 16.3295 12.6611 16.9406 12.4604L18.0201 12.1211" stroke="#325287" stroke-width="1.15663"/>
</g>
<defs>
<clipPath id="clip0_1108_12079">
<rect width="32" height="12.1214" fill="white" transform="translate(0 10)"/>
</clipPath>
</defs>
</svg>
