<svg width="32" height="33" viewBox="0 0 32 33" fill="none" xmlns="http://www.w3.org/2000/svg">
<g clip-path="url(#clip0_1370_84)">
<path d="M30.5106 18.8291H20.4886V21.287H30.5106V18.8291Z" fill="#CEE8FA"/>
<path d="M29.8946 17.3553H21.2825C20.73 17.357 20.2004 17.5768 19.8091 17.9669C19.4178 18.3571 19.1964 18.8859 19.193 19.4385V21.0517H9.45678V20.0545C9.45678 19.3387 9.1724 18.6521 8.6662 18.1459C8.16 17.6397 7.47344 17.3553 6.75757 17.3553H1.67669V12.0585C1.63556 11.8667 1.5299 11.6948 1.37733 11.5715C1.22477 11.4481 1.03452 11.3809 0.838345 11.3809C0.642168 11.3809 0.451924 11.4481 0.299357 11.5715C0.14679 11.6948 0.0411273 11.8667 3.23137e-10 12.0585L3.23137e-10 31.2515C-6.20827e-06 31.4778 0.0894542 31.6949 0.248876 31.8556C0.408299 32.0162 0.624753 32.1072 0.851047 32.1089C1.07793 32.1073 1.29505 32.0164 1.45548 31.856C1.61592 31.6955 1.70678 31.4784 1.70844 31.2515V28.0442H30.2884V31.2515C30.2782 31.3699 30.2927 31.4891 30.3309 31.6016C30.3692 31.714 30.4305 31.8173 30.5108 31.9049C30.5911 31.9924 30.6888 32.0623 30.7975 32.1101C30.9063 32.158 31.0238 32.1826 31.1426 32.1826C31.2614 32.1826 31.3789 32.158 31.4877 32.1101C31.5964 32.0623 31.6941 31.9924 31.7744 31.9049C31.8547 31.8173 31.916 31.714 31.9543 31.6016C31.9925 31.4891 32.007 31.3699 31.9968 31.2515V19.4385C31.996 19.1635 31.9409 18.8915 31.8347 18.6379C31.7286 18.3843 31.5734 18.1541 31.3781 17.9606C31.1828 17.7671 30.9512 17.614 30.6967 17.5101C30.4421 17.4063 30.1695 17.3537 29.8946 17.3553ZM20.9015 21.0517V19.4385C20.9031 19.3385 20.944 19.2432 21.0153 19.1731C21.0866 19.103 21.1825 19.0638 21.2825 19.0638H22.8639V21.0517H20.9015ZM24.5914 21.0517V19.0638H26.5793V21.0517H24.5914ZM28.2878 21.0517V19.0638H29.8946C29.994 19.0638 30.0893 19.1032 30.1596 19.1735C30.2298 19.2438 30.2693 19.3391 30.2693 19.4385V21.0517H28.2878ZM30.2693 22.7284V26.3167H1.68939V22.7284H30.2693ZM1.68939 21.0263V19.0638H6.77027C7.03363 19.0638 7.28629 19.1679 7.4731 19.3536C7.65992 19.5392 7.76571 19.7912 7.76739 20.0545V21.0517L1.68939 21.0263Z" fill="#325287"/>
<path d="M22.1654 5.45995H18.3547V0.963379H13.6359V5.45995H9.8252V9.53101H13.6359V13.8371H18.3293V9.53101H22.14L22.1654 5.45995Z" fill="#CEE8FA"/>
<path d="M21.9367 4.39959H19.0851V1.54795C19.0859 1.41117 19.0598 1.27556 19.0082 1.14887C18.9566 1.02218 18.8806 0.906886 18.7845 0.809577C18.6883 0.712267 18.574 0.634844 18.4479 0.58173C18.3219 0.528616 18.1866 0.500851 18.0498 0.50002H13.9343C13.7973 0.499176 13.6615 0.525542 13.5347 0.577588C13.408 0.629633 13.2928 0.706323 13.1959 0.803211C13.099 0.900099 13.0223 1.01526 12.9703 1.14201C12.9183 1.26876 12.8919 1.40458 12.8927 1.5416V4.39324H10.0474C9.91043 4.39156 9.77445 4.4171 9.64738 4.46837C9.52031 4.51964 9.40468 4.59563 9.3072 4.69193C9.20972 4.78822 9.13233 4.90291 9.07951 5.02935C9.02669 5.15578 8.9995 5.29145 8.99951 5.42847V9.55033C8.99951 9.82658 9.10925 10.0915 9.30458 10.2868C9.49992 10.4822 9.76485 10.5919 10.0411 10.5919H12.8927V13.4372C12.8944 13.7112 13.004 13.9736 13.1978 14.1674C13.3916 14.3612 13.6539 14.4708 13.928 14.4724H18.0371C18.3068 14.4659 18.5633 14.355 18.7529 14.1631C18.9424 13.9712 19.0501 13.7132 19.0533 13.4436V10.5919H21.9049C22.0417 10.5927 22.1773 10.5666 22.304 10.5151C22.4307 10.4635 22.546 10.3875 22.6433 10.2913C22.7406 10.1952 22.818 10.0808 22.8712 9.9548C22.9243 9.82875 22.952 9.69347 22.9529 9.55668V5.44117C22.953 5.16927 22.8467 4.90812 22.6568 4.7135C22.467 4.51888 22.2085 4.40622 21.9367 4.39959V4.39959ZM21.1809 9.06765H18.215C18.0465 9.06765 17.885 9.13456 17.7659 9.25367C17.6468 9.37277 17.5798 9.53432 17.5798 9.70276V12.6687H14.4043V9.71546C14.4043 9.54702 14.3374 9.38548 14.2183 9.26637C14.0992 9.14726 13.9376 9.08035 13.7692 9.08035H10.7969V5.9048H13.7628C13.9313 5.9048 14.0928 5.83789 14.2119 5.71878C14.331 5.59968 14.3979 5.43813 14.3979 5.26969V2.30373H17.5735V5.26334C17.5735 5.43178 17.6404 5.59333 17.7595 5.71243C17.8786 5.83154 18.0402 5.89845 18.2086 5.89845H21.1809V9.074V9.06765Z" fill="#325287"/>
</g>
<defs>
<clipPath id="clip0_1370_84">
<rect width="32" height="32" fill="white" transform="translate(0 0.5)"/>
</clipPath>
</defs>
</svg>
