<svg width="32" height="32" viewBox="0 0 32 32" fill="none" xmlns="http://www.w3.org/2000/svg">
<g clip-path="url(#clip0_1110_13003)">
<rect width="32" height="32" fill="white"/>
<path fill-rule="evenodd" clip-rule="evenodd" d="M7.39061 18.0837L7.27234 20.3369L7.74203 21.5483L8.49999 21.5C8.51539 21.4719 8.53172 21.4415 8.54902 21.4092C8.79102 20.958 9.22483 20.1492 9.99999 20.5C10.8306 20.8758 11.3461 22.8159 11 23.4998L9.95114 25.5975C11.9342 25.3368 13.465 23.6401 13.465 21.5859C13.465 19.3512 11.6533 17.5396 9.4186 17.5396C8.67959 17.5396 7.98686 17.7377 7.39061 18.0837Z" fill="#CEE8FA"/>
<path fill-rule="evenodd" clip-rule="evenodd" d="M24.6146 18.0481L24.5513 20.1895L24.0816 21.4009L23.3647 20.9806C23.134 20.5603 22.3306 20.6242 21.5 21C20.6694 21.3758 20.6539 22.3161 21 23L22.4904 25.4839C22.462 25.4845 22.4335 25.4848 22.405 25.4848C20.1703 25.4848 18.3587 23.6732 18.3587 21.4384C18.3587 19.2037 20.1703 17.3921 22.405 17.3921C23.2203 17.3921 23.9794 17.6332 24.6146 18.0481Z" fill="#CEE8FA"/>
<g clip-path="url(#clip1_1110_13003)">
<path d="M11.3698 0.639648C11.3698 0.639648 11.9943 4.16559 8.94813 5.68867C6.79297 6.76245 3.61734 7.9733 2.28464 10.5473C1.15756 12.7101 2.01048 15.6496 2.28464 16.5178C2.34461 16.7023 2.37544 16.895 2.37602 17.089V18.8862" stroke="#325287" stroke-width="1.14231" stroke-linecap="round"/>
<path d="M0.571129 27.012L1.47736 25.4128C1.63405 25.1338 1.71541 24.8189 1.71344 24.4989V19.9982C1.71383 19.8469 1.7451 19.6973 1.80534 19.5585C1.86557 19.4197 1.95351 19.2946 2.06375 19.191L2.39121 18.8864L7.50002 14" stroke="#325287" stroke-width="1.14231" stroke-linecap="round"/>
<path d="M4.43983 31.4294L6.48077 28.9163C6.55493 28.8245 6.64527 28.7471 6.74731 28.6878C7.35904 28.3379 7.94905 27.9514 8.51408 27.5303C8.73158 27.3756 8.93085 27.1967 9.10809 26.9972C9.56985 26.3706 9.94392 25.684 10.2199 24.9562C10.4484 24.5069 10.6464 24.0348 10.852 23.5702C11.1817 23.0439 11.3189 22.4196 11.2404 21.8035C11.1921 21.5264 11.0528 21.2734 10.8445 21.0845C10.6362 20.8955 10.3709 20.7814 10.0905 20.7601C9.32893 20.7601 8.80347 21.5978 8.38462 22.2375C8.30847 22.3518 8.23993 22.4584 8.16378 22.5574C8.01431 22.7523 7.80602 22.8938 7.56977 22.961C7.46173 22.9918 7.34856 23.0003 7.23712 22.9861C7.12569 22.9718 7.0183 22.9351 6.92147 22.8782C6.82463 22.8212 6.74037 22.7452 6.67378 22.6547C6.60719 22.5642 6.55967 22.4612 6.53408 22.3518L5.8563 19.5036C5.81891 19.3493 5.81803 19.1885 5.85372 19.0338C5.88942 18.8791 5.96071 18.7349 6.06192 18.6126L7.50002 17" stroke="#325287" stroke-width="1.14231" stroke-linecap="round"/>
<path d="M7.70681 12.7485V20.1203C7.70561 20.3044 7.73653 20.4874 7.7982 20.661L8.34651 22.2373" stroke="#325287" stroke-width="1.14231" stroke-linecap="round"/>
<path d="M8.51402 27.4917L8.07233 31.0633" stroke="#325287" stroke-width="1.14231" stroke-linecap="round"/>
<path d="M12.7787 19.1758C13.4385 19.8257 13.8388 20.6938 13.9047 21.6175C13.9705 22.5413 13.6975 23.4574 13.1367 24.1943" stroke="#325287" stroke-width="1.14231" stroke-linecap="round"/>
<path d="M9.32888 18.1397C9.57937 18.0878 9.83461 18.0622 10.0904 18.0635" stroke="#325287" stroke-width="1.14231" stroke-linecap="round"/>
<path d="M12.7787 19.1758L12.9691 19.3738C13.5493 20.0344 13.883 20.8755 13.9135 21.7542C13.9441 22.6328 13.6696 23.495 13.1367 24.1943" stroke="#325287" stroke-width="1.14231" stroke-linecap="round"/>
<path d="M9.32888 18.1397C9.57937 18.0878 9.83461 18.0622 10.0904 18.0635C10.6139 18.0647 11.1318 18.1709 11.6135 18.3758" stroke="#325287" stroke-width="1.14231" stroke-linecap="round"/>
<path d="M29.7154 18.8255V17.0282C29.716 16.8342 29.7468 16.6415 29.8068 16.4571C30.1038 15.5889 30.9567 12.6493 29.8068 10.4866C28.4741 7.91255 25.2984 6.67886 23.1433 5.62031C20.1199 4.09723 20.752 0.571289 20.752 0.571289" stroke="#325287" stroke-width="1.14231" stroke-linecap="round"/>
<path d="M24.5 14L29.7382 18.8253L30.0656 19.1299C30.1759 19.2336 30.2638 19.3586 30.3241 19.4974C30.3843 19.6362 30.4156 19.7859 30.416 19.9372V24.4379C30.4163 24.7585 30.5003 25.0735 30.6596 25.3517L31.5659 26.951" stroke="#325287" stroke-width="1.14231" stroke-linecap="round"/>
<path d="M24.5 17L26.1209 18.5584C26.2221 18.6807 26.2934 18.8249 26.3291 18.9796C26.3648 19.1343 26.3639 19.2951 26.3265 19.4494L25.6487 22.2976C25.6231 22.407 25.5756 22.51 25.509 22.6005C25.4424 22.691 25.3582 22.767 25.2613 22.824C25.1645 22.8809 25.0571 22.9176 24.9457 22.9319C24.8342 22.9461 24.7211 22.9376 24.613 22.9068C24.3762 22.8366 24.1681 22.6925 24.019 22.4956C23.9429 22.3966 23.8743 22.29 23.7982 22.1757C23.3793 21.536 22.892 20.7288 22.0923 20.6983C21.8106 20.7094 21.5406 20.8143 21.3253 20.9965C21.1101 21.1786 20.9619 21.4275 20.9043 21.7036C20.8258 22.3197 20.963 22.944 21.2927 23.4703C21.4983 23.9349 21.6963 24.407 21.9248 24.8564C22.2014 25.5814 22.5755 26.2655 23.0366 26.8897C23.2139 27.0892 23.4132 27.2681 23.6306 27.4228C24.1941 27.8485 24.7842 28.2377 25.3974 28.5879C25.4995 28.6472 25.5898 28.7246 25.664 28.8164L27.7049 31.3675" stroke="#325287" stroke-width="1.14231" stroke-linecap="round"/>
<path d="M23.7982 22.1687L24.3465 20.5999C24.4082 20.4264 24.4391 20.2434 24.4379 20.0592V12.6875" stroke="#325287" stroke-width="1.14231" stroke-linecap="round"/>
<path d="M24.0419 30.9945L23.6002 27.4229" stroke="#325287" stroke-width="1.14231" stroke-linecap="round"/>
<path d="M19.3356 19.1147C18.6824 19.7681 18.289 20.6367 18.2288 21.5586C18.1685 22.4805 18.4455 23.3929 19.0081 24.1257" stroke="#325287" stroke-width="1.14231" stroke-linecap="round"/>
<path d="M22.7929 18.0713C22.5419 18.0226 22.287 17.9971 22.0314 17.9951" stroke="#325287" stroke-width="1.14231" stroke-linecap="round"/>
<path d="M19.3356 19.1147L19.1528 19.3127C18.5779 19.9755 18.2495 20.8165 18.2231 21.6934C18.1968 22.5704 18.4741 23.4296 19.0081 24.1257" stroke="#325287" stroke-width="1.14231" stroke-linecap="round"/>
<path d="M22.7929 18.0713C22.542 18.0226 22.287 17.9971 22.0314 17.9951C21.507 17.9944 20.9882 18.1034 20.5083 18.315" stroke="#325287" stroke-width="1.14231" stroke-linecap="round"/>
<path d="M16.0609 1.11182V2.25413" stroke="#325287" stroke-width="1.14231" stroke-linecap="round"/>
<path d="M16.0609 5.09473V28.4969" stroke="#325287" stroke-width="1.14231" stroke-linecap="round" stroke-dasharray="2.12 2.84"/>
<path d="M16.0609 29.9131V31.0554" stroke="#325287" stroke-width="1.14231" stroke-linecap="round"/>
</g>
</g>
<defs>
<clipPath id="clip0_1110_13003">
<rect width="32" height="32" fill="white"/>
</clipPath>
<clipPath id="clip1_1110_13003">
<rect width="32.1142" height="32" fill="white"/>
</clipPath>
</defs>
</svg>
