<svg width="42" height="42" viewBox="0 0 42 42" fill="none" xmlns="http://www.w3.org/2000/svg">
<rect width="42" height="42" fill="white"/>
<path d="M27.5552 36.8726L24.6758 39.752V34.0015H30.4263L27.5552 36.8726Z" fill="#CEE8FA"/>
<path d="M31.1713 0H2.83705C2.61505 0 2.40215 0.0881895 2.24517 0.245167C2.08819 0.402145 2 0.615053 2 0.837054V40.572C2 40.794 2.08819 41.0069 2.24517 41.1639C2.40215 41.3208 2.61505 41.409 2.83705 41.409H24.3828C24.4906 41.4103 24.5974 41.3894 24.6968 41.3476C24.7962 41.3059 24.8859 41.2442 24.9604 41.1663L31.7573 34.3778C31.9119 34.2219 31.9991 34.0114 32 33.7919V0.820312C31.9957 0.602668 31.9067 0.395276 31.752 0.24213C31.5973 0.0889849 31.389 0.00213355 31.1713 0ZM25.2031 38.5882V34.6038H29.1875L25.2031 38.5882ZM30.3426 32.9548H24.3744C24.1524 32.9548 23.9395 33.043 23.7826 33.2C23.6256 33.3569 23.5374 33.5699 23.5374 33.7919V39.7684H3.67411V1.649H30.3426V32.9548Z" fill="#325287"/>
<path d="M26.6093 21.0845H7.35707C7.13507 21.0845 6.92216 21.1727 6.76519 21.3296C6.60821 21.4866 6.52002 21.6995 6.52002 21.9215C6.52002 22.1435 6.60821 22.3564 6.76519 22.5134C6.92216 22.6704 7.13507 22.7586 7.35707 22.7586H26.6093C26.8313 22.7586 27.0442 22.6704 27.2012 22.5134C27.3582 22.3564 27.4464 22.1435 27.4464 21.9215C27.4464 21.6995 27.3582 21.4866 27.2012 21.3296C27.0442 21.1727 26.8313 21.0845 26.6093 21.0845Z" fill="#325287"/>
<path d="M26.6093 8.02783H7.35707C7.13507 8.02783 6.92216 8.11602 6.76519 8.273C6.60821 8.42998 6.52002 8.64289 6.52002 8.86489C6.52002 9.08689 6.60821 9.29979 6.76519 9.45677C6.92216 9.61375 7.13507 9.70194 7.35707 9.70194H26.6093C26.8313 9.70194 27.0442 9.61375 27.2012 9.45677C27.3582 9.29979 27.4464 9.08689 27.4464 8.86489C27.4464 8.64289 27.3582 8.42998 27.2012 8.273C27.0442 8.11602 26.8313 8.02783 26.6093 8.02783Z" fill="#325287"/>
<path d="M26.6093 23.8887H7.35707C7.24715 23.8887 7.1383 23.9103 7.03675 23.9524C6.93519 23.9945 6.84291 24.0561 6.76519 24.1338C6.68746 24.2116 6.6258 24.3038 6.58374 24.4054C6.54167 24.507 6.52002 24.6158 6.52002 24.7257C6.52002 24.8356 6.54167 24.9445 6.58374 25.0461C6.6258 25.1476 6.68746 25.2399 6.76519 25.3176C6.84291 25.3953 6.93519 25.457 7.03675 25.4991C7.1383 25.5411 7.24715 25.5628 7.35707 25.5628H26.6093C26.8313 25.5628 27.0442 25.4746 27.2012 25.3176C27.3582 25.1606 27.4464 24.9477 27.4464 24.7257C27.4464 24.5037 27.3582 24.2908 27.2012 24.1338C27.0442 23.9769 26.8313 23.8887 26.6093 23.8887Z" fill="#325287"/>
<path d="M26.6093 10.832H7.35707C7.24715 10.832 7.1383 10.8537 7.03675 10.8957C6.93519 10.9378 6.84291 10.9995 6.76519 11.0772C6.68746 11.1549 6.6258 11.2472 6.58374 11.3488C6.54167 11.4503 6.52002 11.5592 6.52002 11.6691C6.52002 11.779 6.54167 11.8879 6.58374 11.9894C6.6258 12.091 6.68746 12.1832 6.76519 12.261C6.84291 12.3387 6.93519 12.4004 7.03675 12.4424C7.1383 12.4845 7.24715 12.5061 7.35707 12.5061H26.6093C26.8313 12.5061 27.0442 12.4179 27.2012 12.261C27.3582 12.104 27.4464 11.8911 27.4464 11.6691C27.4464 11.4471 27.3582 11.2342 27.2012 11.0772C27.0442 10.9202 26.8313 10.832 26.6093 10.832Z" fill="#325287"/>
<path d="M26.6093 13.6362H7.35707C7.24715 13.6362 7.1383 13.6579 7.03675 13.6999C6.93519 13.742 6.84291 13.8037 6.76519 13.8814C6.68746 13.9591 6.6258 14.0514 6.58374 14.153C6.54167 14.2545 6.52002 14.3634 6.52002 14.4733C6.52002 14.5832 6.54167 14.6921 6.58374 14.7936C6.6258 14.8952 6.68746 14.9874 6.76519 15.0652C6.84291 15.1429 6.93519 15.2046 7.03675 15.2466C7.1383 15.2887 7.24715 15.3103 7.35707 15.3103H26.6093C26.8313 15.3103 27.0442 15.2221 27.2012 15.0652C27.3582 14.9082 27.4464 14.6953 27.4464 14.4733C27.4464 14.2513 27.3582 14.0384 27.2012 13.8814C27.0442 13.7244 26.8313 13.6362 26.6093 13.6362Z" fill="#325287"/>
<path d="M26.6094 26.7178H26.1491C25.9271 26.7178 25.7142 26.806 25.5572 26.9629C25.4002 27.1199 25.312 27.3328 25.312 27.5548C25.312 27.7768 25.4002 27.9897 25.5572 28.1467C25.7142 28.3037 25.9271 28.3919 26.1491 28.3919H26.6094C26.8314 28.3919 27.0444 28.3037 27.2013 28.1467C27.3583 27.9897 27.4465 27.7768 27.4465 27.5548C27.4465 27.3328 27.3583 27.1199 27.2013 26.9629C27.0444 26.806 26.8314 26.7178 26.6094 26.7178Z" fill="#325287"/>
<path d="M23.2694 26.7178H7.36537C7.14337 26.7178 6.93047 26.806 6.77349 26.9629C6.61651 27.1199 6.52832 27.3328 6.52832 27.5548C6.52832 27.7768 6.61651 27.9897 6.77349 28.1467C6.93047 28.3037 7.14337 28.3919 7.36537 28.3919H23.2694C23.4914 28.3919 23.7043 28.3037 23.8613 28.1467C24.0183 27.9897 24.1064 27.7768 24.1064 27.5548C24.1064 27.3328 24.0183 27.1199 23.8613 26.9629C23.7043 26.806 23.4914 26.7178 23.2694 26.7178Z" fill="#325287"/>
<circle cx="31.1101" cy="12" r="8.25" fill="#CEE8FA" stroke="#325287" stroke-width="1.5"/>
<path fill-rule="evenodd" clip-rule="evenodd" d="M30.5042 16.3276H30.5027V15.8649H29.9243C29.3319 15.8627 28.7644 15.6259 28.3463 15.2062C27.9281 14.7865 27.6934 14.2182 27.6934 13.6257C27.6934 13.4658 27.7569 13.3123 27.87 13.1992C27.9831 13.0861 28.1366 13.0225 28.2965 13.0225C28.4565 13.0225 28.6099 13.0861 28.7231 13.1992C28.8362 13.3123 28.8997 13.4658 28.8997 13.6257C28.8997 13.8975 29.0077 14.1581 29.1998 14.3502C29.392 14.5424 29.6526 14.6503 29.9243 14.6503H30.5027V12.6011H29.9243C29.355 12.5665 28.8204 12.316 28.4295 11.9006C28.0387 11.4853 27.8211 10.9364 27.8211 10.3661C27.8211 9.79574 28.0387 9.2469 28.4295 8.83154C28.8204 8.41619 29.355 8.16564 29.9243 8.13101H30.5027V6.87507C30.5161 6.76045 30.5615 6.65268 30.6328 6.56369C30.7436 6.42236 30.9159 6.33154 31.1094 6.33154C31.2748 6.33154 31.4246 6.39784 31.5338 6.50531C31.6358 6.60339 31.7008 6.73404 31.7173 6.87507V8.13101H32.2957C32.8881 8.13319 33.4556 8.37007 33.8737 8.78977C34.2919 9.20946 34.5266 9.77776 34.5266 10.3702C34.5266 10.5302 34.4631 10.6836 34.35 10.7967C34.2369 10.9098 34.0834 10.9734 33.9235 10.9734C33.7635 10.9734 33.6101 10.9098 33.497 10.7967C33.3838 10.6836 33.3203 10.5302 33.3203 10.3702C33.3181 10.0991 33.2095 9.83979 33.0178 9.64811C32.8261 9.45643 32.5668 9.34779 32.2957 9.34563H31.7173V11.3948H32.2957C32.865 11.4294 33.3996 11.68 33.7905 12.0953C34.1813 12.5107 34.3989 13.0595 34.3989 13.6299C34.3989 14.2002 34.1813 14.749 33.7905 15.1644C33.3996 15.5797 32.865 15.8303 32.2957 15.8649H31.7173V16.3276H31.7146V17.0633C31.7146 17.3975 31.4436 17.6685 31.1094 17.6685C30.7752 17.6685 30.5042 17.3975 30.5042 17.0633V16.3276ZM32.2957 12.5598H31.7173V14.609H32.2957C32.5674 14.609 32.828 14.501 33.0202 14.3089C33.2123 14.1168 33.3203 13.8561 33.3203 13.5844C33.3203 13.3127 33.2123 13.0521 33.0202 12.8599C32.828 12.6678 32.5674 12.5598 32.2957 12.5598ZM29.9243 11.3535H30.5027V9.30432H29.9243C29.6526 9.30432 29.392 9.41226 29.1998 9.60441C29.0077 9.79655 28.8997 10.0572 28.8997 10.3289C28.8997 10.6006 29.0077 10.8612 29.1998 11.0534C29.392 11.2455 29.6526 11.3535 29.9243 11.3535Z" fill="#325287"/>
</svg>
