<svg width="42" height="42" viewBox="0 0 42 42" fill="none" xmlns="http://www.w3.org/2000/svg">
<g clip-path="url(#clip0_1044_9286)">
<rect width="42" height="42" fill="white"/>
<g clip-path="url(#clip1_1044_9286)">
<path d="M0.75 25.6798C1.45404 25.6895 2.14463 25.4867 2.73158 25.0977C3.31852 24.7088 3.77452 24.1519 4.04 23.4998C4.09071 23.357 4.12754 23.2096 4.15 23.0598C3.18011 23.0858 2.22611 22.8097 1.42 22.2698C1.24536 22.1763 1.09613 22.0416 0.985202 21.8775C0.874273 21.7133 0.804983 21.5246 0.783322 21.3277C0.761661 21.1308 0.78828 20.9316 0.860878 20.7472C0.933477 20.5629 1.04987 20.399 1.2 20.2698C1.4546 20.0741 1.74766 19.9344 2.06 19.8598C2.30236 19.7652 2.56767 19.7461 2.82109 19.805C3.0745 19.8639 3.30419 19.998 3.48 20.1898C3.71258 20.4573 3.88633 20.7708 3.99 21.1098C4.20773 21.7357 4.26279 22.4067 4.15 23.0598C4.78946 23.0562 5.42781 23.006 6.06 22.9098" stroke="#325287" stroke-width="1.5" stroke-linecap="round"/>
<path d="M34.69 15.9399C35.6074 16.7319 36.3732 17.6841 36.95 18.7499C37.4094 19.6333 37.7459 20.5754 37.95 21.5499" stroke="#325287" stroke-width="1.5" stroke-linecap="round"/>
<path d="M17.95 13.75C21.1641 12.5342 24.6477 12.2128 28.03 12.82" stroke="#325287" stroke-width="1.5" stroke-linecap="round"/>
<path d="M37.04 29.5601L36.95 29.7501C35.8002 31.8639 34.0638 33.6003 31.95 34.7501C31.6586 34.9287 31.3582 35.0922 31.05 35.2401" stroke="#325287" stroke-width="1.5" stroke-linecap="round"/>
<path d="M17.83 36.5698C18.5 36.6398 19.21 36.6898 19.95 36.7498C21.575 36.9075 23.209 36.951 24.84 36.8798" stroke="#325287" stroke-width="1.5" stroke-linecap="round"/>
<path d="M11.48 34.87C10.9366 34.5446 10.4244 34.1697 9.95 33.75C8.71624 32.5928 7.7267 31.2003 7.03971 29.6546C6.35272 28.1088 5.9822 26.4412 5.95 24.75C5.94435 24.1349 5.98111 23.5201 6.06 22.91C6.17974 21.5128 6.58712 20.1555 7.25656 18.9234C7.92599 17.6912 8.84301 16.6108 9.95 15.75" stroke="#325287" stroke-width="1.5" stroke-linecap="round"/>
<path d="M11.48 34.8701L12.74 39.8701C12.7988 40.1142 12.9386 40.3311 13.1365 40.4855C13.3345 40.6399 13.579 40.7226 13.83 40.7201H16C16.2077 40.7204 16.4096 40.6518 16.5743 40.5252C16.7389 40.3985 16.857 40.2209 16.91 40.0201L17.83 36.5401" stroke="#325287" stroke-width="1.5" stroke-linecap="round"/>
<path d="M24.84 36.8802L25.73 39.9902C25.7925 40.2078 25.9236 40.3993 26.1038 40.5362C26.284 40.6732 26.5037 40.7483 26.73 40.7502H29.19C29.4019 40.7479 29.6066 40.6732 29.7702 40.5386C29.9339 40.4041 30.0467 40.2177 30.09 40.0102L31.09 35.2402" stroke="#325287" stroke-width="1.5" stroke-linecap="round"/>
<path d="M37.95 21.5498L40 22.3698C40.2777 22.4792 40.5164 22.669 40.6856 22.9148C40.8549 23.1606 40.9469 23.4514 40.95 23.7498V27.2998C40.95 27.5168 40.8839 27.7286 40.7607 27.9072C40.6375 28.0858 40.4629 28.2227 40.26 28.2998L37.04 29.5298" stroke="#325287" stroke-width="1.5" stroke-linecap="round"/>
<path d="M34.95 11.8501C34.954 11.7166 34.9278 11.5839 34.8736 11.4619C34.8193 11.3398 34.7382 11.2316 34.6364 11.1452C34.5346 11.0587 34.4147 10.9963 34.2854 10.9625C34.1562 10.9287 34.0211 10.9245 33.89 10.9501C32.79 11.1601 31.71 11.4101 30.63 11.6901C29.6996 11.817 28.8178 12.1821 28.07 12.7501C27.7651 13.0867 27.5367 13.4854 27.4003 13.9186C27.264 14.3519 27.2229 14.8095 27.28 15.2601C27.2949 16.3685 27.7105 17.4342 28.45 18.2601C29.0572 18.825 29.8078 19.2124 30.62 19.3801C31.4073 19.6063 32.245 19.5853 33.02 19.3201C34.64 18.6901 34.6 16.8501 34.74 15.3801C34.85 14.2501 34.95 13.0501 34.95 11.8501Z" stroke="#325287" stroke-width="1.5" stroke-linecap="round"/>
<path d="M30.95 21.75C30.95 22.2804 31.1607 22.7891 31.5358 23.1642C31.9109 23.5393 32.4196 23.75 32.95 23.75C33.4804 23.75 33.9891 23.5393 34.3642 23.1642C34.7393 22.7891 34.95 22.2804 34.95 21.75" stroke="#325287" stroke-width="1.5" stroke-linecap="round"/>
<path d="M22.19 16.0602C23.8689 15.3192 25.242 14.0236 26.0791 12.3906C26.9163 10.7575 27.1665 8.88633 26.7879 7.0907C26.4093 5.29507 25.4248 3.68419 23.9996 2.52816C22.5744 1.37212 20.7951 0.741211 18.96 0.741211C17.1249 0.741211 15.3456 1.37212 13.9204 2.52816C12.4952 3.68419 11.5107 5.29507 11.1321 7.0907C10.7535 8.88633 11.0037 10.7575 11.8409 12.3906C12.678 14.0236 14.0511 15.3192 15.73 16.0602" fill="#CEE8FA"/>
<path d="M22.19 16.0602C23.8689 15.3192 25.242 14.0236 26.0791 12.3906C26.9163 10.7575 27.1665 8.88633 26.7879 7.0907C26.4093 5.29507 25.4248 3.68419 23.9996 2.52816C22.5744 1.37212 20.7951 0.741211 18.96 0.741211C17.1249 0.741211 15.3456 1.37212 13.9204 2.52816C12.4952 3.68419 11.5107 5.29507 11.1321 7.0907C10.7535 8.88633 11.0037 10.7575 11.8409 12.3906C12.678 14.0236 14.0511 15.3192 15.73 16.0602" stroke="#325287" stroke-width="1.5" stroke-linecap="round"/>
<path d="M12 17.4798C13.9826 16.3998 16.1894 15.796 18.4457 15.7161C20.702 15.6363 22.946 16.0826 25 17.0198" stroke="#325287" stroke-width="1.5" stroke-linecap="round"/>
<path fill-rule="evenodd" clip-rule="evenodd" d="M18.3541 12.728H18.3525V12.2653H17.7742C17.1817 12.2631 16.6143 12.0263 16.1961 11.6066C15.778 11.1869 15.5432 10.6186 15.5432 10.0261C15.5432 9.86614 15.6068 9.71272 15.7199 9.59961C15.833 9.48649 15.9864 9.42294 16.1464 9.42294C16.3064 9.42294 16.4598 9.48649 16.5729 9.59961C16.686 9.71272 16.7496 9.86614 16.7496 10.0261C16.7496 10.2979 16.8575 10.5585 17.0497 10.7506C17.2418 10.9427 17.5024 11.0507 17.7742 11.0507H18.3525V9.00154H17.7742C17.2049 8.96691 16.6702 8.71635 16.2794 8.301C15.8885 7.88565 15.6709 7.3368 15.6709 6.76647C15.6709 6.19613 15.8885 5.64729 16.2794 5.23193C16.6702 4.81658 17.2049 4.56603 17.7742 4.5314H18.3525V3.27546C18.3659 3.16084 18.4114 3.05308 18.4827 2.96408C18.5935 2.82275 18.7658 2.73193 18.9593 2.73193C19.1246 2.73193 19.2745 2.79824 19.3837 2.9057C19.4857 3.00378 19.5507 3.13443 19.5672 3.27546V4.5314H20.1456C20.738 4.53358 21.3054 4.77046 21.7236 5.19016C22.1417 5.60985 22.3765 6.17815 22.3765 6.7706C22.3765 6.93057 22.3129 7.08399 22.1998 7.19711C22.0867 7.31023 21.9333 7.37378 21.7733 7.37378C21.6133 7.37378 21.4599 7.31023 21.3468 7.19711C21.2337 7.08399 21.1701 6.93057 21.1701 6.7706C21.168 6.49953 21.0593 6.24018 20.8677 6.0485C20.676 5.85682 20.4166 5.74818 20.1456 5.74602H19.5672V7.79518H20.1456C20.7148 7.82981 21.2495 8.08036 21.6403 8.49572C22.0312 8.91107 22.2488 9.45991 22.2488 10.0302C22.2488 10.6006 22.0312 11.1494 21.6403 11.5648C21.2495 11.9801 20.7148 12.2307 20.1456 12.2653H19.5672V12.728H19.5645V13.4637C19.5645 13.7979 19.2935 14.0689 18.9593 14.0689C18.625 14.0689 18.3541 13.7979 18.3541 13.4637V12.728ZM20.1456 8.96023H19.5672V11.0094H20.1456C20.4173 11.0094 20.6779 10.9014 20.87 10.7093C21.0622 10.5171 21.1701 10.2565 21.1701 9.9848C21.1701 9.71307 21.0622 9.45246 20.87 9.26032C20.6779 9.06817 20.4173 8.96023 20.1456 8.96023ZM17.7742 7.75386H18.3525V5.70471H17.7742C17.5024 5.70471 17.2418 5.81265 17.0497 6.0048C16.8575 6.19694 16.7496 6.45755 16.7496 6.72929C16.7496 7.00102 16.8575 7.26163 17.0497 7.45377C17.2418 7.64592 17.5024 7.75386 17.7742 7.75386Z" fill="#325287"/>
</g>
</g>
<defs>
<clipPath id="clip0_1044_9286">
<rect width="42" height="42" fill="white"/>
</clipPath>
<clipPath id="clip1_1044_9286">
<rect width="41.7" height="41.5" fill="white"/>
</clipPath>
</defs>
</svg>
