<svg width="16" height="16" viewBox="0 0 16 16" fill="none" xmlns="http://www.w3.org/2000/svg">
<path d="M7.99999 0.63623C3.93526 0.63623 0.636353 3.93514 0.636353 7.99987C0.636353 12.0646 3.93526 15.3635 7.99999 15.3635C12.0647 15.3635 15.3636 12.0646 15.3636 7.99987C15.3636 3.93514 12.0647 0.63623 7.99999 0.63623ZM8.73635 13.1544H7.26363V11.6817H8.73635V13.1544ZM10.2606 7.44759L9.5979 8.12505C9.06772 8.66259 8.73635 9.10441 8.73635 10.209H7.26363V9.84078C7.26363 9.03078 7.59499 8.29441 8.12517 7.75687L9.03826 6.82905C9.31072 6.56396 9.47272 6.19578 9.47272 5.79078C9.47272 4.98078 8.80999 4.31805 7.99999 4.31805C7.18999 4.31805 6.52726 4.98078 6.52726 5.79078H5.05453C5.05453 4.16341 6.37263 2.84532 7.99999 2.84532C9.62735 2.84532 10.9454 4.16341 10.9454 5.79078C10.9454 6.43878 10.6804 7.02787 10.2606 7.44759Z" fill="white"/>
</svg>
