<svg width="16" height="16" viewBox="0 0 16 16" fill="none" xmlns="http://www.w3.org/2000/svg">
<path d="M8 0.63623C3.93527 0.63623 0.636364 3.93514 0.636364 7.99987C0.636364 12.0646 3.93527 15.3635 8 15.3635C12.0647 15.3635 15.3636 12.0646 15.3636 7.99987C15.3636 3.93514 12.0647 0.63623 8 0.63623ZM8.73636 13.1544H7.26364V11.6817H8.73636V13.1544ZM10.2606 7.44759L9.59791 8.12505C9.06773 8.66259 8.73636 9.10441 8.73636 10.209H7.26364V9.84078C7.26364 9.03078 7.595 8.29441 8.12518 7.75687L9.03827 6.82905C9.31073 6.56396 9.47273 6.19578 9.47273 5.79078C9.47273 4.98078 8.81 4.31805 8 4.31805C7.19 4.31805 6.52727 4.98078 6.52727 5.79078H5.05455C5.05455 4.16341 6.37264 2.84532 8 2.84532C9.62736 2.84532 10.9455 4.16341 10.9455 5.79078C10.9455 6.43878 10.6804 7.02787 10.2606 7.44759Z" fill="#46A088"/>
</svg>
