<svg width="32" height="33" viewBox="0 0 32 33" fill="none" xmlns="http://www.w3.org/2000/svg">
<g clip-path="url(#clip0_1370_1916)">
<path d="M21.4465 29.1257L19.2553 31.3168V26.9409H23.6312L21.4465 29.1257Z" fill="#CEE8FA"/>
<path d="M24.198 1.06738H2.63696C2.46803 1.06738 2.30601 1.13449 2.18656 1.25394C2.06711 1.3734 2 1.53541 2 1.70434V31.9408C2 32.1097 2.06711 32.2717 2.18656 32.3912C2.30601 32.5106 2.46803 32.5777 2.63696 32.5777H19.0323C19.1143 32.5787 19.1956 32.5628 19.2712 32.531C19.3468 32.4992 19.4151 32.4522 19.4718 32.393L24.6439 27.2273C24.7615 27.1086 24.8279 26.9485 24.8286 26.7814V1.6916C24.8253 1.52598 24.7576 1.36817 24.6399 1.25163C24.5221 1.1351 24.3636 1.06901 24.198 1.06738ZM19.6565 30.4312V27.3992H22.6884L19.6565 30.4312ZM23.5674 26.1444H19.0259C18.857 26.1444 18.695 26.2115 18.5755 26.331C18.456 26.4504 18.3889 26.6125 18.3889 26.7814V31.3293H3.27392V2.32219H23.5674V26.1444Z" fill="#325287"/>
<path d="M20.7265 19.1113H6.07641C5.90748 19.1113 5.74547 19.1784 5.62601 19.2979C5.50656 19.4173 5.43945 19.5794 5.43945 19.7483C5.43945 19.9172 5.50656 20.0792 5.62601 20.1987C5.74547 20.3181 5.90748 20.3852 6.07641 20.3852H20.7265C20.8954 20.3852 21.0574 20.3181 21.1769 20.1987C21.2963 20.0792 21.3634 19.9172 21.3634 19.7483C21.3634 19.5794 21.2963 19.4173 21.1769 19.2979C21.0574 19.1784 20.8954 19.1113 20.7265 19.1113Z" fill="#325287"/>
<path d="M20.7265 21.2451H6.07641C5.99276 21.2451 5.90994 21.2616 5.83266 21.2936C5.75538 21.3256 5.68516 21.3725 5.62601 21.4317C5.56687 21.4908 5.51995 21.561 5.48794 21.6383C5.45593 21.7156 5.43945 21.7984 5.43945 21.8821C5.43945 21.9657 5.45593 22.0486 5.48794 22.1258C5.51995 22.2031 5.56687 22.2733 5.62601 22.3325C5.68516 22.3916 5.75538 22.4385 5.83266 22.4705C5.90994 22.5026 5.99276 22.519 6.07641 22.519H20.7265C20.8954 22.519 21.0574 22.4519 21.1769 22.3325C21.2963 22.213 21.3634 22.051 21.3634 21.8821C21.3634 21.7131 21.2963 21.5511 21.1769 21.4317C21.0574 21.3122 20.8954 21.2451 20.7265 21.2451V21.2451Z" fill="#325287"/>
<path d="M20.7268 23.3984H20.3765C20.2075 23.3984 20.0455 23.4655 19.9261 23.585C19.8066 23.7045 19.7395 23.8665 19.7395 24.0354C19.7395 24.2043 19.8066 24.3663 19.9261 24.4858C20.0455 24.6052 20.2075 24.6724 20.3765 24.6724H20.7268C20.8957 24.6724 21.0577 24.6052 21.1772 24.4858C21.2966 24.3663 21.3637 24.2043 21.3637 24.0354C21.3637 23.8665 21.2966 23.7045 21.1772 23.585C21.0577 23.4655 20.8957 23.3984 20.7268 23.3984Z" fill="#325287"/>
<path d="M18.1852 23.3984H6.083C5.91407 23.3984 5.75206 23.4655 5.63261 23.585C5.51315 23.7045 5.44604 23.8665 5.44604 24.0354C5.44604 24.2043 5.51315 24.3663 5.63261 24.4858C5.75206 24.6052 5.91407 24.6724 6.083 24.6724H18.1852C18.3541 24.6724 18.5162 24.6052 18.6356 24.4858C18.7551 24.3663 18.8222 24.2043 18.8222 24.0354C18.8222 23.8665 18.7551 23.7045 18.6356 23.585C18.5162 23.4655 18.3541 23.3984 18.1852 23.3984Z" fill="#325287"/>
<circle cx="13.4142" cy="10.8117" r="5.06195" fill="#CEE8FA" stroke="#325287" stroke-width="0.920355"/>
<circle cx="13.4143" cy="13.428" r="0.604738" fill="#325287"/>
<rect x="12.8095" y="7.59082" width="1.20948" height="4.59538" rx="0.604738" fill="#325287"/>
</g>
<defs>
<clipPath id="clip0_1370_1916">
<rect width="32" height="32" fill="white" transform="translate(0 0.5)"/>
</clipPath>
</defs>
</svg>
