<svg width="75" height="101" viewBox="0 0 75 101" fill="none" xmlns="http://www.w3.org/2000/svg">
<rect y="0.570801" width="52.4017" height="99.4484" rx="4.97242" fill="#353535"/>
<rect x="4.14258" y="10.9282" width="44.5355" height="78.7139" fill="#FAFAFC"/>
<path fill-rule="evenodd" clip-rule="evenodd" d="M27.4598 20C25.1155 20 23.2151 21.9004 23.2151 24.2447V39.6538H23.0002V54.8136L29.5223 46H69.9703C72.3146 46 74.2151 44.0996 74.2151 41.7553V24.2447C74.2151 21.9004 72.3146 20 69.9703 20H27.4598Z" fill="#C51427"/>
<path d="M31.0271 33.015L32.4745 33.8082L31.8174 34.9083L30.341 34.0398L30.3699 35.6639H29.1077L29.1222 34.0282L27.6458 34.9141L27.0002 33.814L28.4477 33.0208L27.0002 32.216L27.6458 31.116L29.1222 32.0018L29.1077 30.3633H30.3699L30.341 32.0018L31.8174 31.116L32.4745 32.216L31.0271 33.015Z" fill="white"/>
<path d="M38.487 33.015L39.9518 33.8082L39.2946 34.9083L37.8182 34.0398L37.8443 35.6639H36.5821L36.5966 34.0282L35.1202 34.9141L34.4746 33.814L35.9394 33.0208L34.4746 32.216L35.1202 31.116L36.5966 32.0018L36.5821 30.3633H37.8443L37.8182 32.0018L39.2946 31.116L39.9518 32.216L38.487 33.015Z" fill="white"/>
<path d="M45.964 33.015L47.4259 33.8082L46.7688 34.9083L45.2924 34.0398L45.3184 35.6639H44.0563L44.0707 34.0282L42.5943 34.9141L41.9517 33.814L43.4136 33.0208L41.9517 32.216L42.5943 31.116L44.0707 32.0018L44.0563 30.3633H45.3184L45.2924 32.0018L46.7688 31.116L47.4259 32.216L45.964 33.015Z" fill="white"/>
<path d="M53.4384 33.015L54.9003 33.8082L54.2432 34.9083L52.7668 34.0398L52.7928 35.6639H51.5306L51.5451 34.0282L50.0687 34.9141L49.426 33.814L50.888 33.0208L49.426 32.216L50.0687 31.116L51.5451 32.0018L51.5306 30.3633H52.7928L52.7668 32.0018L54.2432 31.116L54.9003 32.216L53.4384 33.015Z" fill="white"/>
<path d="M60.9125 33.015L62.3744 33.8082L61.7173 34.9083L60.2409 34.0398L60.2669 35.6639H59.0047L59.0192 34.0282L57.5428 34.9141L56.9001 33.814L58.3621 33.0208L56.9001 32.216L57.5428 31.116L59.0192 32.0018L59.0047 30.3633H60.2669L60.2409 32.0018L61.7173 31.116L62.3744 32.216L60.9125 33.015Z" fill="white"/>
<path d="M68.3869 33.015L69.8488 33.8082L69.1916 34.9083L67.7152 34.0398L67.7413 35.6639H66.4791L66.4936 34.0282L65.0172 34.9141L64.3745 33.814L65.8364 33.0208L64.3745 32.216L65.0172 31.116L66.4936 32.0018L66.4791 30.3633H67.7413L67.7152 32.0018L69.1916 31.116L69.8488 32.216L68.3869 33.015Z" fill="white"/>
</svg>
